<?xml version="1.0" encoding="UTF-8"?>
<svg id="mixer" xmlns="http://www.w3.org/2000/svg" viewBox="0 0 1057.24 2389.01">
  <defs>
    <style>
      .cls-1 {
        opacity: .85;
      }

      .cls-2 {
        letter-spacing: 0em;
      }

      .cls-3 {
        font-size: 49.37px;
      }

      .cls-3, .cls-4, .cls-5, .cls-6, .cls-7, .cls-8 {
        fill: #6bed87;
      }

      .cls-3, .cls-4, .cls-6, .cls-7, .cls-8 {
        font-family: MyriadPro-Regular, 'Myriad Pro';
      }

      .cls-9 {
        letter-spacing: .02em;
      }

      .cls-10, .cls-11, .cls-12, .cls-13, .cls-14, .cls-15, .cls-16, .cls-17, .cls-18, .cls-19 {
        stroke-miterlimit: 10;
      }
      
      .cls-11, .cls-18{
          stroke-width: 5px;
      }

      .cls-10 {
        stroke-width: 5px;
        transition: fill 0.3s ease;
        transition:0.5s;
      }

      .cls-10, .cls-13, .cls-16, .cls-17 {
        stroke: #6bed87;
      }

      .cls-20 {
        letter-spacing: -.04em;
      }

      .cls-11, .cls-12, .cls-13, .cls-14, .cls-15, .cls-16, .cls-18 {
        fill: none;
      }

      .cls-11, .cls-12, .cls-14, .cls-15, .cls-19 {
        stroke: #fff;
      }

      .cls-12 {
        stroke-width: 4px;
      }

      .cls-12, .cls-14, .cls-16, .cls-17 {
        stroke-linecap: round;
      }

      .cls-21 {
        letter-spacing: 0em;
      }

      .cls-22 {
        letter-spacing: -.03em;
      }

      .cls-4 {
        font-size: 57.37px;
      }

      .cls-23 {
        letter-spacing: 0em;
      }

      .cls-24 {
        letter-spacing: 0em;
      }

      .cls-25 {
        letter-spacing: 0em;
      }

      .cls-26 {
        fill: #666;
        transition: fill 0.5s ease;

      }

      .cls-6 {
        font-size: 57.37px;
      }

      .cls-14, .cls-19 {
        stroke-width: 6px;
      }

      .cls-27 {
        letter-spacing: 0em;
      }

      .cls-7 {
        font-size: 23.22px;
      }

      .cls-28 {
        letter-spacing: -.01em;
      }

      .cls-29 {
        letter-spacing: 0em;
      }

      .cls-30 {
        letter-spacing: 0em;
      }

      .cls-15 {
        stroke-width: 2px;
      }

      .cls-31 {
        letter-spacing: 0em;
      }

      .cls-8 {
        font-size: 47.37px;
      }

      .cls-32 {
        letter-spacing: .02em;
      }

      .cls-17 {
        fill: #fff;
        stroke-width: 16px;
      }

      .cls-18 {
        stroke: #000;
      }

      .cls-33 {
        letter-spacing: 0em;
      }

      .cls-34 {
        letter-spacing: 0em;
      }

      .cls-35 {
        letter-spacing: 0em;
      }
    </style>
  </defs>
  <rect x="186" y="25.01" width="45" height="2124"/>
  <rect x="829" y="31.01" width="45" height="2124"/>
  <g id="faderBlock">
    <g>
      <rect x="4.64" y="1640.19" width="406.17" height="746.32" rx="25" ry="25"/>
      <rect class="cls-18" x="4.64" y="1640.19" width="406.17" height="746.32" rx="25" ry="25"/>
    </g>
    <line class="cls-17" x1="208.29" y1="1682.39" x2="208.29" y2="2343.33"/>
    <g id="faderLevelLines">
      <line class="cls-12" x1="27.13" y1="1682.39" x2="161.65" y2="1682.39"/>
      <line class="cls-12" x1="27.13" y1="1748.48" x2="116.81" y2="1748.48"/>
      <line class="cls-12" x1="27.13" y1="1880.67" x2="116.81" y2="1880.67"/>
      <line class="cls-12" x1="27.13" y1="2012.86" x2="116.81" y2="2012.86"/>
      <line class="cls-12" x1="27.13" y1="1814.58" x2="161.65" y2="1814.58"/>
      <line class="cls-12" x1="27.13" y1="1946.76" x2="161.65" y2="1946.76"/>
      <line class="cls-12" x1="27.13" y1="2078.95" x2="161.65" y2="2078.95"/>
      <line class="cls-12" x1="27.13" y1="2145.05" x2="116.81" y2="2145.05"/>
      <line class="cls-12" x1="27.13" y1="2211.14" x2="161.65" y2="2211.14"/>
      <line class="cls-12" x1="27.13" y1="2277.23" x2="116.81" y2="2277.23"/>
      <line class="cls-12" x1="28.92" y1="2343.33" x2="163.45" y2="2343.33"/>
      <line class="cls-12" x1="253.13" y1="1682.39" x2="387.66" y2="1682.39"/>
      <line class="cls-12" x1="299.77" y1="1748.48" x2="389.45" y2="1748.48"/>
      <line class="cls-12" x1="299.77" y1="1880.67" x2="389.45" y2="1880.67"/>
      <line class="cls-12" x1="299.77" y1="2012.86" x2="389.45" y2="2012.86"/>
      <line class="cls-12" x1="253.13" y1="1814.58" x2="387.66" y2="1814.58"/>
      <line class="cls-12" x1="253.13" y1="1946.76" x2="387.66" y2="1946.76"/>
      <line class="cls-12" x1="253.13" y1="2078.95" x2="387.66" y2="2078.95"/>
      <line class="cls-12" x1="299.77" y1="2145.05" x2="389.45" y2="2145.05"/>
      <line class="cls-12" x1="253.13" y1="2211.14" x2="387.66" y2="2211.14"/>
      <line class="cls-12" x1="299.77" y1="2277.23" x2="389.45" y2="2277.23"/>
      <line class="cls-12" x1="254.93" y1="2343.33" x2="389.45" y2="2343.33"/>
    </g>
    <g id="faderKnob">
      <g class="cls-1">
        <rect x="96.92" y="2315.95" width="222.61" height="56.65" rx="15" ry="15"/>
        <rect class="cls-11" x="96.92" y="2315.95" width="222.61" height="56.65" rx="15" ry="15"/>
      </g>
    </g>
  </g>
  <g id="faderBlock-2" data-name="faderBlock">
    <g>
      <rect x="648.57" y="1640.01" width="406.17" height="746.32" rx="25" ry="25"/>
      <rect class="cls-18" x="648.57" y="1640.01" width="406.17" height="746.32" rx="25" ry="25"/>
    </g>
    <line class="cls-17" x1="852.22" y1="1682.21" x2="852.22" y2="2343.15"/>
    <g id="faderLevelLines-2" data-name="faderLevelLines">
      <line class="cls-12" x1="671.06" y1="1682.21" x2="805.58" y2="1682.21"/>
      <line class="cls-12" x1="671.06" y1="1748.31" x2="760.74" y2="1748.31"/>
      <line class="cls-12" x1="671.06" y1="1880.49" x2="760.74" y2="1880.49"/>
      <line class="cls-12" x1="671.06" y1="2012.68" x2="760.74" y2="2012.68"/>
      <line class="cls-12" x1="671.06" y1="1814.4" x2="805.58" y2="1814.4"/>
      <line class="cls-12" x1="671.06" y1="1946.59" x2="805.58" y2="1946.59"/>
      <line class="cls-12" x1="671.06" y1="2078.78" x2="805.58" y2="2078.78"/>
      <line class="cls-12" x1="671.06" y1="2144.87" x2="760.74" y2="2144.87"/>
      <line class="cls-12" x1="671.06" y1="2210.96" x2="805.58" y2="2210.96"/>
      <line class="cls-12" x1="671.06" y1="2277.06" x2="760.74" y2="2277.06"/>
      <line class="cls-12" x1="672.85" y1="2343.15" x2="807.37" y2="2343.15"/>
      <line class="cls-12" x1="897.06" y1="1682.21" x2="1031.58" y2="1682.21"/>
      <line class="cls-12" x1="943.69" y1="1748.31" x2="1033.38" y2="1748.31"/>
      <line class="cls-12" x1="943.69" y1="1880.49" x2="1033.38" y2="1880.49"/>
      <line class="cls-12" x1="943.69" y1="2012.68" x2="1033.38" y2="2012.68"/>
      <line class="cls-12" x1="897.06" y1="1814.4" x2="1031.58" y2="1814.4"/>
      <line class="cls-12" x1="897.06" y1="1946.59" x2="1031.58" y2="1946.59"/>
      <line class="cls-12" x1="897.06" y1="2078.78" x2="1031.58" y2="2078.78"/>
      <line class="cls-12" x1="943.69" y1="2144.87" x2="1033.38" y2="2144.87"/>
      <line class="cls-12" x1="897.06" y1="2210.96" x2="1031.58" y2="2210.96"/>
      <line class="cls-12" x1="943.69" y1="2277.06" x2="1033.38" y2="2277.06"/>
      <line class="cls-12" x1="898.85" y1="2343.15" x2="1033.38" y2="2343.15"/>
    </g>
    <g id="faderKnob-2" data-name="faderKnob">
      <g class="cls-1">
        <rect x="740.85" y="2315.77" width="222.61" height="56.65" rx="15" ry="15"/>
        <rect class="cls-11" x="740.85" y="2315.77" width="222.61" height="56.65" rx="15" ry="15"/>
      </g>
    </g>
  </g>
  <g id="settingsButton">
    <g>
      <rect x="460" y="1670.51" width="132" height="132" rx="25" ry="25"/>
      <path class="cls-13" d="M526.11,1714.01c-12.3,0-22.31,10.01-22.31,22.31s10.01,22.31,22.31,22.31,22.31-10.01,22.31-22.31-10.01-22.31-22.31-22.31ZM526.11,1753.67c-9.57,0-17.35-7.79-17.35-17.35s7.79-17.35,17.35-17.35,17.35,7.79,17.35,17.35-7.79,17.35-17.35,17.35Z"/>
      <path class="cls-13" d="M574.79,1724.51h-10.22c-1.64,0-3-.9-3.63-2.42s-.31-3.12.85-4.28l7.23-7.23c1.06-1.06,1.65-2.48,1.65-3.98s-.58-2.92-1.65-3.98l-9.21-9.21c-2.13-2.13-5.83-2.13-7.96,0l-7.23,7.23c-1.16,1.16-2.76,1.48-4.28.85-1.52-.63-2.42-1.98-2.42-3.63v-10.22c0-3.1-2.52-5.63-5.63-5.63h-13.03c-3.1,0-5.63,2.52-5.63,5.63v10.22c0,1.64-.9,3-2.42,3.63-1.51.63-3.12.31-4.28-.85l-7.23-7.23c-2.13-2.13-5.83-2.13-7.96,0l-9.21,9.21c-1.06,1.06-1.65,2.48-1.65,3.98s.58,2.91,1.65,3.98l7.23,7.23c1.16,1.16,1.48,2.76.85,4.28s-1.98,2.42-3.63,2.42h-10.22c-3.1,0-5.63,2.52-5.63,5.63v13.03c0,3.1,2.52,5.63,5.63,5.63h10.22c1.64,0,3,.9,3.63,2.42.63,1.52.31,3.12-.85,4.28l-7.23,7.23c-1.06,1.06-1.65,2.48-1.65,3.98s.58,2.92,1.65,3.98l9.21,9.21c2.13,2.13,5.83,2.13,7.96,0l7.23-7.23c1.16-1.16,2.76-1.48,4.28-.85,1.52.63,2.42,1.98,2.42,3.63v10.22c0,3.1,2.52,5.63,5.63,5.63h13.03c3.1,0,5.63-2.52,5.63-5.63v-10.22c0-1.64.9-3,2.42-3.63,1.52-.63,3.12-.31,4.28.85l7.23,7.23c2.13,2.13,5.83,2.13,7.96,0l9.21-9.21c1.06-1.06,1.65-2.48,1.65-3.98s-.58-2.91-1.65-3.98l-7.23-7.23c-1.16-1.16-1.48-2.76-.85-4.28s1.99-2.42,3.63-2.42h10.22c3.1,0,5.63-2.52,5.63-5.63v-13.03c0-3.1-2.52-5.63-5.63-5.63ZM576.37,1743.17c0,.87-.71,1.58-1.58,1.58h-10.22c-3.29,0-6.11,1.89-7.37,4.92-1.26,3.04-.6,6.37,1.73,8.69l7.23,7.23c.62.62.62,1.62,0,2.23l-9.21,9.21c-.62.62-1.62.62-2.23,0l-7.23-7.23c-2.33-2.33-5.65-2.98-8.69-1.73-3.04,1.26-4.92,4.08-4.92,7.37v10.22c0,.87-.71,1.58-1.58,1.58h-13.03c-.87,0-1.58-.71-1.58-1.58v-10.22c0-3.29-1.89-6.11-4.92-7.37-1.02-.42-2.07-.63-3.1-.63-2.05,0-4.04.81-5.59,2.36l-7.23,7.23c-.62.62-1.62.62-2.23,0l-9.21-9.21c-.62-.62-.62-1.62,0-2.23l7.23-7.23c2.32-2.32,2.99-5.65,1.73-8.69-1.26-3.03-4.08-4.92-7.37-4.92h-10.22c-.87,0-1.58-.71-1.58-1.58v-13.03c0-.87.71-1.58,1.58-1.58h10.22c3.29,0,6.11-1.89,7.37-4.92,1.26-3.04.6-6.37-1.73-8.69l-7.23-7.23c-.62-.62-.62-1.62,0-2.23l9.21-9.21c.62-.62,1.62-.62,2.23,0l7.23,7.23c2.32,2.32,5.65,2.99,8.69,1.73,3.04-1.25,4.92-4.08,4.92-7.36v-10.22c0-.87.71-1.58,1.58-1.58h13.03c.87,0,1.58.71,1.58,1.58v10.22c0,3.29,1.89,6.11,4.92,7.37,3.04,1.26,6.37.6,8.69-1.73l7.23-7.23c.62-.62,1.62-.62,2.23,0l9.21,9.21c.62.62.62,1.62,0,2.23l-7.23,7.23c-2.32,2.32-2.99,5.65-1.73,8.69,1.26,3.04,4.08,4.92,7.37,4.92h10.22c.87,0,1.58.71,1.58,1.58v13.03Z"/>
    </g>
  </g>
  <g id="reverbBlock2">
    <g id="blockBackground">
      <rect x="552.21" y="1286.99" width="500" height="329" rx="25" ry="25"/>
    </g>
    <text id="blockText" class="cls-6" transform="translate(580.29 1367.83) scale(1.17 1)"><tspan class="cls-29" x="0" y="0">R</tspan><tspan x="31.1" y="0">e</tspan><tspan class="cls-25" x="59.84" y="0">v</tspan><tspan x="86.86" y="0">e</tspan><tspan class="cls-31" x="115.6" y="0">r</tspan><tspan x="134.59" y="0">b</tspan></text>
    <g id="blockSettingsButton">
      <rect x="886.21" y="1491.99" width="139" height="97" rx="25" ry="25"/>
      <path class="cls-16" d="M959.16,1526.6c-6.92,0-12.56,5.63-12.56,12.56s5.63,12.56,12.56,12.56,12.56-5.63,12.56-12.56-5.63-12.56-12.56-12.56ZM959.16,1548.92c-5.38,0-9.77-4.38-9.77-9.77s4.38-9.77,9.77-9.77,9.77,4.38,9.77,9.77-4.38,9.77-9.77,9.77Z"/>
      <path class="cls-16" d="M986.56,1532.51h-5.75c-.92,0-1.69-.51-2.04-1.36-.35-.85-.17-1.75.48-2.41l4.07-4.07c.6-.6.93-1.39.93-2.24s-.33-1.64-.93-2.24l-5.19-5.19c-1.2-1.2-3.28-1.2-4.48,0l-4.07,4.07c-.65.65-1.56.83-2.41.48-.85-.35-1.36-1.12-1.36-2.04v-5.75c0-1.75-1.42-3.17-3.17-3.17h-7.33c-1.75,0-3.17,1.42-3.17,3.17v5.75c0,.92-.51,1.69-1.36,2.04-.85.36-1.75.17-2.41-.48l-4.07-4.07c-1.2-1.2-3.28-1.2-4.48,0l-5.19,5.19c-.6.6-.93,1.39-.93,2.24s.33,1.64.93,2.24l4.07,4.07c.65.65.83,1.55.48,2.41s-1.12,1.36-2.04,1.36h-5.75c-1.75,0-3.17,1.42-3.17,3.17v7.33c0,1.75,1.42,3.17,3.17,3.17h5.75c.92,0,1.69.51,2.04,1.36s.17,1.75-.48,2.41l-4.07,4.07c-.6.6-.93,1.39-.93,2.24s.33,1.64.93,2.24l5.19,5.19c1.2,1.2,3.28,1.2,4.48,0l4.07-4.07c.65-.65,1.55-.83,2.41-.48.85.35,1.36,1.12,1.36,2.04v5.75c0,1.75,1.42,3.17,3.17,3.17h7.33c1.75,0,3.17-1.42,3.17-3.17v-5.75c0-.92.51-1.69,1.36-2.04.86-.36,1.75-.17,2.41.48l4.07,4.07c1.2,1.2,3.28,1.2,4.48,0l5.19-5.19c.6-.6.93-1.39.93-2.24s-.33-1.64-.93-2.24l-4.07-4.07c-.65-.65-.83-1.55-.48-2.41s1.12-1.36,2.04-1.36h5.75c1.75,0,3.17-1.42,3.17-3.17v-7.33c0-1.75-1.42-3.17-3.17-3.17ZM987.45,1543.01c0,.49-.4.89-.89.89h-5.75c-1.85,0-3.44,1.06-4.15,2.77-.71,1.71-.34,3.58.97,4.89l4.07,4.07c.35.35.35.91,0,1.26l-5.19,5.19c-.35.35-.91.35-1.26,0l-4.07-4.07c-1.31-1.31-3.18-1.68-4.89-.97-1.71.71-2.77,2.3-2.77,4.15v5.75c0,.49-.4.89-.89.89h-7.33c-.49,0-.89-.4-.89-.89v-5.75c0-1.85-1.06-3.44-2.77-4.15-.57-.24-1.16-.35-1.75-.35-1.15,0-2.27.46-3.14,1.33l-4.07,4.07c-.35.35-.91.35-1.26,0l-5.19-5.19c-.35-.35-.35-.91,0-1.26l4.07-4.07c1.31-1.31,1.68-3.18.97-4.89-.71-1.71-2.3-2.77-4.15-2.77h-5.75c-.49,0-.89-.4-.89-.89v-7.33c0-.49.4-.89.89-.89h5.75c1.85,0,3.44-1.06,4.15-2.77.71-1.71.34-3.58-.97-4.89l-4.07-4.07c-.35-.35-.35-.91,0-1.26l5.19-5.19c.35-.35.91-.35,1.26,0l4.07,4.07c1.31,1.31,3.18,1.68,4.89.97,1.71-.71,2.77-2.29,2.77-4.14v-5.75c0-.49.4-.89.89-.89h7.33c.49,0,.89.4.89.89v5.75c0,1.85,1.06,3.44,2.77,4.15,1.71.71,3.58.33,4.89-.97l4.07-4.07c.35-.35.91-.35,1.26,0l5.19,5.19c.35.35.35.91,0,1.26l-4.07,4.07c-1.31,1.31-1.68,3.18-.97,4.89.71,1.71,2.3,2.77,4.15,2.77h5.75c.49,0,.89.4.89.89v7.33Z"/>
    </g>
    <g id="blockDragPoints">
      <circle class="cls-5" cx="598.21" cy="1397.99" r="3"/>
      <circle class="cls-5" cx="623.21" cy="1397.99" r="3"/>
      <circle class="cls-5" cx="648.21" cy="1397.99" r="3"/>
      <circle class="cls-5" cx="598.21" cy="1422.99" r="3"/>
      <circle class="cls-5" cx="623.21" cy="1422.99" r="3"/>
      <circle class="cls-5" cx="648.21" cy="1422.99" r="3"/>
      <circle class="cls-5" cx="598.21" cy="1447.99" r="3"/>
      <circle class="cls-5" cx="623.21" cy="1447.99" r="3"/>
      <circle class="cls-5" cx="648.21" cy="1447.99" r="3"/>
    </g>
    <g id="blockKnob">
      <g id="_x3C_fase_x3E_">
        <circle id="_x3C_knobOutLine_x3E_" class="cls-19" cx="957.5" cy="1375.67" r="67.37"/>
        <g id="_x3C_knobLine_x3E_">
          <line class="cls-14" x1="928.21" y1="1424.99" x2="953.21" y2="1381.99"/>
          <line x1="928.21" y1="1424.99" x2="953.21" y2="1381.99"/>
        </g>
      </g>
      <text class="cls-7" transform="translate(885.64 1461.73) scale(1.17 1)"><tspan x="0" y="0">D</tspan><tspan class="cls-32" x="15.46" y="0">r</tspan><tspan class="cls-35" x="23.64" y="0">y</tspan></text>
      <text class="cls-7" transform="translate(982.64 1464.73) scale(1.17 1)"><tspan class="cls-22" x="0" y="0">W</tspan><tspan class="cls-34" x="18.88" y="0">et</tspan></text>
    </g>
    <g id="blockOnOffSwitch">
      <path class="cls-26" d="M569,1541.51c0,33.14,26.86,60,60,60h130c33.14,0,60-26.86,60-60s-26.86-60-60-60h-130c-33.14,0-60,26.86-60,60,0,0,0-33.14,0,0Z"/>
      <circle class="cls-10" cx="633.1" cy="1542.16" r="46.65"/>
    </g>
  </g>
  <g id="reverbBlock1">
    <g id="blockBackground-2" data-name="blockBackground">
      <rect x="2" y="1287.01" width="500" height="329" rx="25" ry="25"/>
    </g>
    <g id="blockKnob-2" data-name="blockKnob">
      <g id="_x3C_fase_x3E_-2" data-name="_x3C_fase_x3E_">
        <circle id="_x3C_knobOutLine_x3E_-2" data-name="_x3C_knobOutLine_x3E_" class="cls-19" cx="407.29" cy="1375.69" r="67.37"/>
        <g id="_x3C_knobLine_x3E_-2" data-name="_x3C_knobLine_x3E_">
          <line class="cls-14" x1="378" y1="1425.01" x2="403" y2="1382.01"/>
          <line x1="378" y1="1425.01" x2="403" y2="1382.01"/>
        </g>
      </g>
      <text class="cls-7" transform="translate(335.43 1461.74) scale(1.17 1)"><tspan x="0" y="0">D</tspan><tspan class="cls-32" x="15.46" y="0">r</tspan><tspan class="cls-35" x="23.64" y="0">y</tspan></text>
      <text class="cls-7" transform="translate(432.44 1464.74) scale(1.17 1)"><tspan class="cls-22" x="0" y="0">W</tspan><tspan class="cls-34" x="18.88" y="0">et</tspan></text>
    </g>
    <g id="blockOnOffSwitch-2" data-name="blockOnOffSwitch">
      <path class="cls-26" d="M22.28,1539.23c0,33.14,26.86,60,60,60h130c33.14,0,60-26.86,60-60s-26.86-60-60-60H82.28c-33.14,0-60,26.86-60,60,0,0,0-33.14,0,0Z"/>
      <circle class="cls-10" cx="86.38" cy="1539.88" r="46.65"/>
    </g>
    <text id="blockText-2" data-name="blockText" class="cls-6" transform="translate(30.08 1367.84) scale(1.17 1)"><tspan class="cls-29" x="0" y="0">R</tspan><tspan x="31.1" y="0">e</tspan><tspan class="cls-25" x="59.84" y="0">v</tspan><tspan x="86.86" y="0">e</tspan><tspan class="cls-31" x="115.6" y="0">r</tspan><tspan x="134.59" y="0">b</tspan></text>
    <g id="blockDragPoints-2" data-name="blockDragPoints">
      <circle class="cls-5" cx="48" cy="1398.01" r="3"/>
      <circle class="cls-5" cx="73" cy="1398.01" r="3"/>
      <circle class="cls-5" cx="98" cy="1398.01" r="3"/>
      <circle class="cls-5" cx="48" cy="1423.01" r="3"/>
      <circle class="cls-5" cx="73" cy="1423.01" r="3"/>
      <circle class="cls-5" cx="98" cy="1423.01" r="3"/>
      <circle class="cls-5" cx="48" cy="1448.01" r="3"/>
      <circle class="cls-5" cx="73" cy="1448.01" r="3"/>
      <circle class="cls-5" cx="98" cy="1448.01" r="3"/>
    </g>
    <g id="blockSettingsButton-2" data-name="blockSettingsButton">
      <rect x="336" y="1492.01" width="139" height="97" rx="25" ry="25"/>
      <path class="cls-16" d="M408.16,1526.6c-6.92,0-12.56,5.63-12.56,12.56s5.63,12.56,12.56,12.56,12.56-5.63,12.56-12.56-5.63-12.56-12.56-12.56ZM408.16,1548.92c-5.38,0-9.77-4.38-9.77-9.77s4.38-9.77,9.77-9.77,9.77,4.38,9.77,9.77-4.38,9.77-9.77,9.77Z"/>
      <path class="cls-16" d="M435.56,1532.51h-5.75c-.92,0-1.69-.51-2.04-1.36s-.17-1.75.48-2.41l4.07-4.07c.6-.6.93-1.39.93-2.24s-.33-1.64-.93-2.24l-5.19-5.19c-1.2-1.2-3.28-1.2-4.48,0l-4.07,4.07c-.65.65-1.56.83-2.41.48-.85-.35-1.36-1.12-1.36-2.04v-5.75c0-1.75-1.42-3.17-3.17-3.17h-7.33c-1.75,0-3.17,1.42-3.17,3.17v5.75c0,.92-.51,1.69-1.36,2.04-.85.36-1.75.17-2.41-.48l-4.07-4.07c-1.2-1.2-3.28-1.2-4.48,0l-5.19,5.19c-.6.6-.93,1.39-.93,2.24s.33,1.64.93,2.24l4.07,4.07c.65.65.83,1.55.48,2.41s-1.12,1.36-2.04,1.36h-5.75c-1.75,0-3.17,1.42-3.17,3.17v7.33c0,1.75,1.42,3.17,3.17,3.17h5.75c.92,0,1.69.51,2.04,1.36s.17,1.75-.48,2.41l-4.07,4.07c-.6.6-.93,1.39-.93,2.24s.33,1.64.93,2.24l5.19,5.19c1.2,1.2,3.28,1.2,4.48,0l4.07-4.07c.65-.65,1.55-.83,2.41-.48.85.35,1.36,1.12,1.36,2.04v5.75c0,1.75,1.42,3.17,3.17,3.17h7.33c1.75,0,3.17-1.42,3.17-3.17v-5.75c0-.92.51-1.69,1.36-2.04.86-.36,1.75-.17,2.41.48l4.07,4.07c1.2,1.2,3.28,1.2,4.48,0l5.19-5.19c.6-.6.93-1.39.93-2.24s-.33-1.64-.93-2.24l-4.07-4.07c-.65-.65-.83-1.55-.48-2.41s1.12-1.36,2.04-1.36h5.75c1.75,0,3.17-1.42,3.17-3.17v-7.33c0-1.75-1.42-3.17-3.17-3.17ZM436.45,1543.01c0,.49-.4.89-.89.89h-5.75c-1.85,0-3.44,1.06-4.15,2.77-.71,1.71-.34,3.58.97,4.89l4.07,4.07c.35.35.35.91,0,1.26l-5.19,5.19c-.35.35-.91.35-1.26,0l-4.07-4.07c-1.31-1.31-3.18-1.68-4.89-.97-1.71.71-2.77,2.3-2.77,4.15v5.75c0,.49-.4.89-.89.89h-7.33c-.49,0-.89-.4-.89-.89v-5.75c0-1.85-1.06-3.44-2.77-4.15-.57-.24-1.16-.35-1.75-.35-1.15,0-2.27.46-3.14,1.33l-4.07,4.07c-.35.35-.91.35-1.26,0l-5.19-5.19c-.35-.35-.35-.91,0-1.26l4.07-4.07c1.31-1.31,1.68-3.18.97-4.89-.71-1.71-2.3-2.77-4.15-2.77h-5.75c-.49,0-.89-.4-.89-.89v-7.33c0-.49.4-.89.89-.89h5.75c1.85,0,3.44-1.06,4.15-2.77.71-1.71.34-3.58-.97-4.89l-4.07-4.07c-.35-.35-.35-.91,0-1.26l5.19-5.19c.35-.35.91-.35,1.26,0l4.07,4.07c1.31,1.31,3.18,1.68,4.89.97,1.71-.71,2.77-2.29,2.77-4.14v-5.75c0-.49.4-.89.89-.89h7.33c.49,0,.89.4.89.89v5.75c0,1.85,1.06,3.44,2.77,4.15,1.71.71,3.58.33,4.89-.97l4.07-4.07c.35-.35.91-.35,1.26,0l5.19,5.19c.35.35.35.91,0,1.26l-4.07,4.07c-1.31,1.31-1.68,3.18-.97,4.89.71,1.71,2.3,2.77,4.15,2.77h5.75c.49,0,.89.4.89.89v7.33Z"/>
    </g>
  </g>
  <g id="equalizerBlock2">
    <g id="blockBackground-3" data-name="blockBackground">
      <rect x="551.83" y="935.41" width="500" height="329" rx="25" ry="25"/>
    </g>
    <text id="blockText-3" data-name="blockText" class="cls-6" transform="translate(581.9 1011.92) scale(1.17 1)"><tspan x="0" y="0">EQ</tspan></text>
    <g id="blockSettingsButton-3" data-name="blockSettingsButton">
      <rect x="886.67" y="1138.31" width="139" height="97" rx="25" ry="25"/>
      <path class="cls-16" d="M957.38,1173.11c-6.92,0-12.56,5.63-12.56,12.56s5.63,12.56,12.56,12.56,12.56-5.63,12.56-12.56-5.63-12.56-12.56-12.56ZM957.38,1195.43c-5.38,0-9.77-4.38-9.77-9.77s4.38-9.77,9.77-9.77,9.77,4.38,9.77,9.77-4.38,9.77-9.77,9.77Z"/>
      <path class="cls-16" d="M984.78,1179.02h-5.75c-.92,0-1.69-.51-2.04-1.36-.35-.85-.17-1.75.48-2.41l4.07-4.07c.6-.6.93-1.39.93-2.24s-.33-1.64-.93-2.24l-5.19-5.19c-1.2-1.2-3.28-1.2-4.48,0l-4.07,4.07c-.65.65-1.56.83-2.41.48-.85-.35-1.36-1.12-1.36-2.04v-5.75c0-1.75-1.42-3.17-3.17-3.17h-7.33c-1.75,0-3.17,1.42-3.17,3.17v5.75c0,.92-.51,1.69-1.36,2.04-.85.36-1.75.17-2.41-.48l-4.07-4.07c-1.2-1.2-3.28-1.2-4.48,0l-5.19,5.19c-.6.6-.93,1.39-.93,2.24s.33,1.64.93,2.24l4.07,4.07c.65.65.83,1.55.48,2.41s-1.12,1.36-2.04,1.36h-5.75c-1.75,0-3.17,1.42-3.17,3.17v7.33c0,1.75,1.42,3.17,3.17,3.17h5.75c.92,0,1.69.51,2.04,1.36s.17,1.75-.48,2.41l-4.07,4.07c-.6.6-.93,1.39-.93,2.24s.33,1.64.93,2.24l5.19,5.19c1.2,1.2,3.28,1.2,4.48,0l4.07-4.07c.65-.65,1.55-.83,2.41-.48.85.35,1.36,1.12,1.36,2.04v5.75c0,1.75,1.42,3.17,3.17,3.17h7.33c1.75,0,3.17-1.42,3.17-3.17v-5.75c0-.92.51-1.69,1.36-2.04.86-.36,1.75-.17,2.41.48l4.07,4.07c1.2,1.2,3.28,1.2,4.48,0l5.19-5.19c.6-.6.93-1.39.93-2.24s-.33-1.64-.93-2.24l-4.07-4.07c-.65-.65-.83-1.55-.48-2.41s1.12-1.36,2.04-1.36h5.75c1.75,0,3.17-1.42,3.17-3.17v-7.33c0-1.75-1.42-3.17-3.17-3.17ZM985.67,1189.52c0,.49-.4.89-.89.89h-5.75c-1.85,0-3.44,1.06-4.15,2.77-.71,1.71-.34,3.58.97,4.89l4.07,4.07c.35.35.35.91,0,1.26l-5.19,5.19c-.35.35-.91.35-1.26,0l-4.07-4.07c-1.31-1.31-3.18-1.68-4.89-.97-1.71.71-2.77,2.3-2.77,4.15v5.75c0,.49-.4.89-.89.89h-7.33c-.49,0-.89-.4-.89-.89v-5.75c0-1.85-1.06-3.44-2.77-4.15-.57-.24-1.16-.35-1.75-.35-1.15,0-2.27.46-3.14,1.33l-4.07,4.07c-.35.35-.91.35-1.26,0l-5.19-5.19c-.35-.35-.35-.91,0-1.26l4.07-4.07c1.31-1.31,1.68-3.18.97-4.89-.71-1.71-2.3-2.77-4.15-2.77h-5.75c-.49,0-.89-.4-.89-.89v-7.33c0-.49.4-.89.89-.89h5.75c1.85,0,3.44-1.06,4.15-2.77.71-1.71.34-3.58-.97-4.89l-4.07-4.07c-.35-.35-.35-.91,0-1.26l5.19-5.19c.35-.35.91-.35,1.26,0l4.07,4.07c1.31,1.31,3.18,1.68,4.89.97,1.71-.71,2.77-2.29,2.77-4.14v-5.75c0-.49.4-.89.89-.89h7.33c.49,0,.89.4.89.89v5.75c0,1.85,1.06,3.44,2.77,4.15,1.71.71,3.58.33,4.89-.97l4.07-4.07c.35-.35.91-.35,1.26,0l5.19,5.19c.35.35.35.91,0,1.26l-4.07,4.07c-1.31,1.31-1.68,3.18-.97,4.89.71,1.71,2.3,2.77,4.15,2.77h5.75c.49,0,.89.4.89.89v7.33Z"/>
    </g>
    <g id="blockDragPoints-3" data-name="blockDragPoints">
      <circle class="cls-5" cx="599.82" cy="1042.08" r="3"/>
      <circle class="cls-5" cx="624.82" cy="1042.08" r="3"/>
      <circle class="cls-5" cx="649.82" cy="1042.08" r="3"/>
      <circle class="cls-5" cx="599.82" cy="1067.08" r="3"/>
      <circle class="cls-5" cx="624.82" cy="1067.08" r="3"/>
      <circle class="cls-5" cx="649.82" cy="1067.08" r="3"/>
      <circle class="cls-5" cx="599.82" cy="1092.08" r="3"/>
      <circle class="cls-5" cx="624.82" cy="1092.08" r="3"/>
      <circle class="cls-5" cx="649.82" cy="1092.08" r="3"/>
    </g>
    <g id="blockKnob-3" data-name="blockKnob">
      <g id="_x3C_fase_x3E_-3" data-name="_x3C_fase_x3E_">
        <circle id="_x3C_knobOutLine_x3E_-3" data-name="_x3C_knobOutLine_x3E_" class="cls-19" cx="959.11" cy="1019.76" r="67.37"/>
        <g id="_x3C_knobLine_x3E_-3" data-name="_x3C_knobLine_x3E_">
          <line class="cls-14" x1="929.82" y1="1069.08" x2="954.82" y2="1026.08"/>
          <line x1="929.82" y1="1069.08" x2="954.82" y2="1026.08"/>
        </g>
      </g>
      <text class="cls-7" transform="translate(887.25 1105.81) scale(1.17 1)"><tspan x="0" y="0">D</tspan><tspan class="cls-32" x="15.46" y="0">r</tspan><tspan class="cls-35" x="23.64" y="0">y</tspan></text>
      <text class="cls-7" transform="translate(984.25 1108.81) scale(1.17 1)"><tspan class="cls-22" x="0" y="0">W</tspan><tspan class="cls-34" x="18.88" y="0">et</tspan></text>
    </g>
    <g id="blockOnOffSwitch-3" data-name="blockOnOffSwitch">
      <path class="cls-26" d="M569.28,1184.07c0,33.14,26.86,60,60,60h130c33.14,0,60-26.86,60-60s-26.86-60-60-60h-130c-33.14,0-60,26.86-60,60,0,0,0-33.14,0,0Z"/>
      <circle class="cls-10" cx="633.38" cy="1184.72" r="46.65"/>
    </g>
  </g>
  <g id="equalizerBlock1">
    <g id="blockBackground-4" data-name="blockBackground">
      <rect y="935.01" width="500" height="329" rx="25" ry="25"/>
    </g>
    <text id="blockText-4" data-name="blockText" class="cls-6" transform="translate(30.07 1011.51) scale(1.17 1)"><tspan x="0" y="0">EQ</tspan></text>
    <g id="blockDragPoints-4" data-name="blockDragPoints">
      <circle class="cls-5" cx="47.99" cy="1041.67" r="3"/>
      <circle class="cls-5" cx="72.99" cy="1041.67" r="3"/>
      <circle class="cls-5" cx="97.99" cy="1041.67" r="3"/>
      <circle class="cls-5" cx="47.99" cy="1066.67" r="3"/>
      <circle class="cls-5" cx="72.99" cy="1066.67" r="3"/>
      <circle class="cls-5" cx="97.99" cy="1066.67" r="3"/>
      <circle class="cls-5" cx="47.99" cy="1091.67" r="3"/>
      <circle class="cls-5" cx="72.99" cy="1091.67" r="3"/>
      <circle class="cls-5" cx="97.99" cy="1091.67" r="3"/>
    </g>
    <g id="blockKnob-4" data-name="blockKnob">
      <g id="_x3C_fase_x3E_-4" data-name="_x3C_fase_x3E_">
        <circle id="_x3C_knobOutLine_x3E_-4" data-name="_x3C_knobOutLine_x3E_" class="cls-19" cx="407.28" cy="1019.35" r="67.37"/>
        <g id="_x3C_knobLine_x3E_-4" data-name="_x3C_knobLine_x3E_">
          <line class="cls-14" x1="377.99" y1="1068.67" x2="402.99" y2="1025.67"/>
          <line x1="377.99" y1="1068.67" x2="402.99" y2="1025.67"/>
        </g>
      </g>
      <text class="cls-7" transform="translate(335.42 1105.41) scale(1.17 1)"><tspan x="0" y="0">D</tspan><tspan class="cls-32" x="15.46" y="0">r</tspan><tspan class="cls-35" x="23.64" y="0">y</tspan></text>
      <text class="cls-7" transform="translate(432.42 1108.41) scale(1.17 1)"><tspan class="cls-22" x="0" y="0">W</tspan><tspan class="cls-34" x="18.88" y="0">et</tspan></text>
    </g>
    <g id="blockSettingsButton-4" data-name="blockSettingsButton">
      <rect x="335.99" y="1135.67" width="139" height="97" rx="25" ry="25"/>
      <path class="cls-16" d="M407.14,1171.19c-6.99,0-12.68,5.69-12.68,12.68s5.69,12.68,12.68,12.68,12.68-5.69,12.68-12.68-5.69-12.68-12.68-12.68ZM407.14,1193.73c-5.44,0-9.86-4.43-9.86-9.86s4.43-9.86,9.86-9.86,9.86,4.43,9.86,9.86-4.43,9.86-9.86,9.86Z"/>
      <path class="cls-16" d="M434.8,1177.16h-5.81c-.93,0-1.7-.51-2.06-1.38s-.18-1.77.48-2.43l4.11-4.11c.6-.6.94-1.41.94-2.26s-.33-1.66-.94-2.26l-5.24-5.24c-1.21-1.21-3.31-1.21-4.52,0l-4.11,4.11c-.66.66-1.57.84-2.43.48-.86-.36-1.38-1.13-1.38-2.06v-5.81c0-1.76-1.43-3.2-3.2-3.2h-7.41c-1.76,0-3.2,1.43-3.2,3.2v5.81c0,.93-.51,1.7-1.38,2.06-.86.36-1.77.17-2.43-.48l-4.11-4.11c-1.21-1.21-3.32-1.21-4.52,0l-5.24,5.24c-.6.6-.94,1.41-.94,2.26s.33,1.66.94,2.26l4.11,4.11c.66.66.84,1.57.48,2.43s-1.13,1.38-2.06,1.38h-5.81c-1.76,0-3.2,1.43-3.2,3.2v7.41c0,1.76,1.43,3.2,3.2,3.2h5.81c.93,0,1.7.51,2.06,1.38s.18,1.77-.48,2.43l-4.11,4.11c-.6.6-.94,1.41-.94,2.26s.33,1.66.94,2.26l5.24,5.24c1.21,1.21,3.31,1.21,4.52,0l4.11-4.11c.66-.66,1.57-.84,2.43-.48.86.36,1.38,1.13,1.38,2.06v5.81c0,1.76,1.43,3.2,3.2,3.2h7.41c1.76,0,3.2-1.43,3.2-3.2v-5.81c0-.93.51-1.7,1.38-2.06.86-.36,1.77-.18,2.43.48l4.11,4.11c1.21,1.21,3.32,1.21,4.52,0l5.24-5.24c.6-.6.94-1.41.94-2.26s-.33-1.66-.94-2.26l-4.11-4.11c-.66-.66-.84-1.57-.48-2.43s1.13-1.38,2.06-1.38h5.81c1.76,0,3.2-1.43,3.2-3.2v-7.41c0-1.76-1.43-3.2-3.2-3.2ZM435.7,1187.77c0,.49-.4.9-.9.9h-5.81c-1.87,0-3.47,1.07-4.19,2.8-.72,1.73-.34,3.62.98,4.94l4.11,4.11c.35.35.35.92,0,1.27l-5.24,5.24c-.35.35-.92.35-1.27,0l-4.11-4.11c-1.32-1.32-3.21-1.7-4.94-.98-1.73.71-2.8,2.32-2.8,4.19v5.81c0,.49-.4.9-.9.9h-7.41c-.49,0-.9-.4-.9-.9v-5.81c0-1.87-1.07-3.47-2.8-4.19-.58-.24-1.17-.36-1.76-.36-1.17,0-2.3.46-3.18,1.34l-4.11,4.11c-.35.35-.92.35-1.27,0l-5.24-5.24c-.35-.35-.35-.92,0-1.27l4.11-4.11c1.32-1.32,1.7-3.21.98-4.94-.71-1.72-2.32-2.8-4.19-2.8h-5.81c-.49,0-.9-.4-.9-.9v-7.41c0-.49.4-.9.9-.9h5.81c1.87,0,3.47-1.07,4.19-2.8.72-1.73.34-3.62-.98-4.94l-4.11-4.11c-.35-.35-.35-.92,0-1.27l5.24-5.24c.35-.35.92-.35,1.27,0l4.11,4.11c1.32,1.32,3.21,1.7,4.94.98,1.73-.71,2.8-2.32,2.8-4.19v-5.81c0-.49.4-.9.9-.9h7.41c.5,0,.9.4.9.9v5.81c0,1.87,1.07,3.47,2.8,4.19,1.73.72,3.62.34,4.94-.98l4.11-4.11c.35-.35.92-.35,1.27,0l5.24,5.24c.35.35.35.92,0,1.27l-4.11,4.11c-1.32,1.32-1.7,3.21-.98,4.94.71,1.73,2.32,2.8,4.19,2.8h5.81c.49,0,.9.4.9.9v7.41Z"/>
    </g>
    <g id="blockOnOffSwitch-4" data-name="blockOnOffSwitch">
      <path class="cls-26" d="M22.28,1186.07c0,33.14,26.86,60,60,60h130c33.14,0,60-26.86,60-60s-26.86-60-60-60H82.28c-33.14,0-60,26.86-60,60,0,0,0-33.14,0,0Z"/>
      <circle class="cls-10" cx="86.38" cy="1186.72" r="46.65"/>
    </g>
  </g>
  <g id="compressorBlock2">
    <g id="blockBackground-5" data-name="blockBackground">
      <rect x="548" y="584.01" width="500" height="329" rx="25" ry="25"/>
    </g>
    <text id="blockText-5" data-name="blockText" class="cls-8" transform="translate(574.48 655.22) scale(1.17 1)"><tspan class="cls-28" x="0" y="0">C</tspan><tspan class="cls-27" x="26.96" y="0">omp</tspan><tspan class="cls-2" x="119.43" y="0">r</tspan><tspan x="134.44" y="0">essor</tspan></text>
    <text class="cls-7" transform="translate(903.4 836.18) scale(1.17 1)"><tspan class="cls-24" x="0" y="0">S</tspan><tspan x="11.59" y="0">ettings</tspan></text>
    <g id="blockKnob-5" data-name="blockKnob">
      <g id="_x3C_fase_x3E_-5" data-name="_x3C_fase_x3E_">
        <circle id="_x3C_knobOutLine_x3E_-5" data-name="_x3C_knobOutLine_x3E_" class="cls-19" cx="951.69" cy="663.07" r="67.37"/>
        <g id="_x3C_knobLine_x3E_-5" data-name="_x3C_knobLine_x3E_">
          <line class="cls-14" x1="922.4" y1="712.39" x2="947.4" y2="669.39"/>
          <line x1="922.4" y1="712.39" x2="947.4" y2="669.39"/>
        </g>
      </g>
      <text class="cls-7" transform="translate(879.83 749.12) scale(1.17 1)"><tspan x="0" y="0">D</tspan><tspan class="cls-32" x="15.46" y="0">r</tspan><tspan class="cls-35" x="23.64" y="0">y</tspan></text>
      <text class="cls-7" transform="translate(976.83 752.12) scale(1.17 1)"><tspan class="cls-22" x="0" y="0">W</tspan><tspan class="cls-34" x="18.88" y="0">et</tspan></text>
    </g>
    <g id="blockDragPoints-5" data-name="blockDragPoints">
      <circle class="cls-5" cx="592.4" cy="685.39" r="3"/>
      <circle class="cls-5" cx="617.4" cy="685.39" r="3"/>
      <circle class="cls-5" cx="642.4" cy="685.39" r="3"/>
      <circle class="cls-5" cx="592.4" cy="710.39" r="3"/>
      <circle class="cls-5" cx="617.4" cy="710.39" r="3"/>
      <circle class="cls-5" cx="642.4" cy="710.39" r="3"/>
      <circle class="cls-5" cx="592.4" cy="735.39" r="3"/>
      <circle class="cls-5" cx="617.4" cy="735.39" r="3"/>
      <circle class="cls-5" cx="642.4" cy="735.39" r="3"/>
    </g>
    <g id="blockSettingsButton-5" data-name="blockSettingsButton">
      <rect x="880.4" y="779.39" width="139" height="97" rx="25" ry="25"/>
      <path class="cls-16" d="M950.64,817.36c-6.92,0-12.56,5.63-12.56,12.56s5.63,12.56,12.56,12.56,12.56-5.63,12.56-12.56-5.63-12.56-12.56-12.56ZM950.64,839.68c-5.38,0-9.77-4.38-9.77-9.77s4.38-9.77,9.77-9.77,9.77,4.38,9.77,9.77-4.38,9.77-9.77,9.77Z"/>
      <path class="cls-16" d="M978.04,823.27h-5.75c-.92,0-1.69-.51-2.04-1.36s-.17-1.75.48-2.41l4.07-4.07c.6-.6.93-1.39.93-2.24s-.33-1.64-.93-2.24l-5.19-5.19c-1.2-1.2-3.28-1.2-4.48,0l-4.07,4.07c-.65.65-1.56.83-2.41.48-.85-.35-1.36-1.12-1.36-2.04v-5.75c0-1.75-1.42-3.17-3.17-3.17h-7.33c-1.75,0-3.17,1.42-3.17,3.17v5.75c0,.92-.51,1.69-1.36,2.04-.85.36-1.75.17-2.41-.48l-4.07-4.07c-1.2-1.2-3.28-1.2-4.48,0l-5.19,5.19c-.6.6-.93,1.39-.93,2.24s.33,1.64.93,2.24l4.07,4.07c.65.65.83,1.55.48,2.41s-1.12,1.36-2.04,1.36h-5.75c-1.75,0-3.17,1.42-3.17,3.17v7.33c0,1.75,1.42,3.17,3.17,3.17h5.75c.92,0,1.69.51,2.04,1.36.35.85.17,1.75-.48,2.41l-4.07,4.07c-.6.6-.93,1.39-.93,2.24s.33,1.64.93,2.24l5.19,5.19c1.2,1.2,3.28,1.2,4.48,0l4.07-4.07c.65-.65,1.55-.83,2.41-.48.85.35,1.36,1.12,1.36,2.04v5.75c0,1.75,1.42,3.17,3.17,3.17h7.33c1.75,0,3.17-1.42,3.17-3.17v-5.75c0-.92.51-1.69,1.36-2.04.86-.36,1.75-.17,2.41.48l4.07,4.07c1.2,1.2,3.28,1.2,4.48,0l5.19-5.19c.6-.6.93-1.39.93-2.24s-.33-1.64-.93-2.24l-4.07-4.07c-.65-.65-.83-1.55-.48-2.41s1.12-1.36,2.04-1.36h5.75c1.75,0,3.17-1.42,3.17-3.17v-7.33c0-1.75-1.42-3.17-3.17-3.17ZM978.93,833.77c0,.49-.4.89-.89.89h-5.75c-1.85,0-3.44,1.06-4.15,2.77-.71,1.71-.34,3.58.97,4.89l4.07,4.07c.35.35.35.91,0,1.26l-5.19,5.19c-.35.35-.91.35-1.26,0l-4.07-4.07c-1.31-1.31-3.18-1.68-4.89-.97-1.71.71-2.77,2.3-2.77,4.15v5.75c0,.49-.4.89-.89.89h-7.33c-.49,0-.89-.4-.89-.89v-5.75c0-1.85-1.06-3.44-2.77-4.15-.57-.24-1.16-.35-1.75-.35-1.15,0-2.27.46-3.14,1.33l-4.07,4.07c-.35.35-.91.35-1.26,0l-5.19-5.19c-.35-.35-.35-.91,0-1.26l4.07-4.07c1.31-1.31,1.68-3.18.97-4.89-.71-1.71-2.3-2.77-4.15-2.77h-5.75c-.49,0-.89-.4-.89-.89v-7.33c0-.49.4-.89.89-.89h5.75c1.85,0,3.44-1.06,4.15-2.77.71-1.71.34-3.58-.97-4.89l-4.07-4.07c-.35-.35-.35-.91,0-1.26l5.19-5.19c.35-.35.91-.35,1.26,0l4.07,4.07c1.31,1.31,3.18,1.68,4.89.97,1.71-.71,2.77-2.29,2.77-4.14v-5.75c0-.49.4-.89.89-.89h7.33c.49,0,.89.4.89.89v5.75c0,1.85,1.06,3.44,2.77,4.15,1.71.71,3.58.33,4.89-.97l4.07-4.07c.35-.35.91-.35,1.26,0l5.19,5.19c.35.35.35.91,0,1.26l-4.07,4.07c-1.31,1.31-1.68,3.18-.97,4.89.71,1.71,2.3,2.77,4.15,2.77h5.75c.49,0,.89.4.89.89v7.33Z"/>
    </g>
    <g id="blockOnOffSwitch-5" data-name="blockOnOffSwitch">
      <path class="cls-26" d="M565.28,831.07c0,33.14,26.86,60,60,60h130c33.14,0,60-26.86,60-60s-26.86-60-60-60h-130c-33.14,0-60,26.86-60,60,0,0,0-33.14,0,0Z"/>
      <circle class="cls-10" cx="629.38" cy="831.72" r="46.65"/>
    </g>
  </g>
  <g id="compressorBlock1">
    <g id="blockBackground-6" data-name="blockBackground">
      <rect x=".3" y="582.53" width="500" height="329" rx="25" ry="25"/>
    </g>
    <text id="blockText-6" data-name="blockText" class="cls-8" transform="translate(30.37 659.03) scale(1.17 1)"><tspan class="cls-28" x="0" y="0">C</tspan><tspan class="cls-27" x="26.96" y="0">omp</tspan><tspan class="cls-2" x="119.43" y="0">r</tspan><tspan x="134.44" y="0">essor</tspan></text>
    <g id="blockKnob-6" data-name="blockKnob">
      <g id="_x3C_fase_x3E_-6" data-name="_x3C_fase_x3E_">
        <circle id="_x3C_knobOutLine_x3E_-6" data-name="_x3C_knobOutLine_x3E_" class="cls-19" cx="407.58" cy="666.88" r="67.37"/>
        <g id="_x3C_knobLine_x3E_-6" data-name="_x3C_knobLine_x3E_">
          <line class="cls-14" x1="378.29" y1="716.2" x2="403.29" y2="673.2"/>
          <line x1="378.29" y1="716.2" x2="403.29" y2="673.2"/>
        </g>
      </g>
      <text class="cls-7" transform="translate(335.72 752.93) scale(1.17 1)"><tspan x="0" y="0">D</tspan><tspan class="cls-32" x="15.46" y="0">r</tspan><tspan class="cls-35" x="23.64" y="0">y</tspan></text>
      <text class="cls-7" transform="translate(432.73 755.93) scale(1.17 1)"><tspan class="cls-22" x="0" y="0">W</tspan><tspan class="cls-34" x="18.88" y="0">et</tspan></text>
    </g>
    <g id="blockDragPoints-6" data-name="blockDragPoints">
      <circle class="cls-5" cx="48.29" cy="689.2" r="3"/>
      <circle class="cls-5" cx="73.29" cy="689.2" r="3"/>
      <circle class="cls-5" cx="98.29" cy="689.2" r="3"/>
      <circle class="cls-5" cx="48.29" cy="714.2" r="3"/>
      <circle class="cls-5" cx="73.29" cy="714.2" r="3"/>
      <circle class="cls-5" cx="98.29" cy="714.2" r="3"/>
      <circle class="cls-5" cx="48.29" cy="739.2" r="3"/>
      <circle class="cls-5" cx="73.29" cy="739.2" r="3"/>
      <circle class="cls-5" cx="98.29" cy="739.2" r="3"/>
    </g>
    <g id="blockSettingsButton-6" data-name="blockSettingsButton">
      <rect x="336.29" y="783.2" width="139" height="97" rx="25" ry="25"/>
      <path class="cls-16" d="M407.44,818.66c-6.92,0-12.56,5.63-12.56,12.56s5.63,12.56,12.56,12.56,12.56-5.63,12.56-12.56-5.63-12.56-12.56-12.56ZM407.44,840.98c-5.38,0-9.77-4.38-9.77-9.77s4.38-9.77,9.77-9.77,9.77,4.38,9.77,9.77-4.38,9.77-9.77,9.77Z"/>
      <path class="cls-16" d="M434.83,824.57h-5.75c-.92,0-1.69-.51-2.04-1.36s-.17-1.75.48-2.41l4.07-4.07c.6-.6.93-1.39.93-2.24s-.33-1.64-.93-2.24l-5.19-5.19c-1.2-1.2-3.28-1.2-4.48,0l-4.07,4.07c-.65.65-1.56.83-2.41.48-.85-.35-1.36-1.12-1.36-2.04v-5.75c0-1.75-1.42-3.17-3.17-3.17h-7.33c-1.75,0-3.17,1.42-3.17,3.17v5.75c0,.92-.51,1.69-1.36,2.04-.85.36-1.75.17-2.41-.48l-4.07-4.07c-1.2-1.2-3.28-1.2-4.48,0l-5.19,5.19c-.6.6-.93,1.39-.93,2.24s.33,1.64.93,2.24l4.07,4.07c.65.65.83,1.55.48,2.41s-1.12,1.36-2.04,1.36h-5.75c-1.75,0-3.17,1.42-3.17,3.17v7.33c0,1.75,1.42,3.17,3.17,3.17h5.75c.92,0,1.69.51,2.04,1.36s.17,1.75-.48,2.41l-4.07,4.07c-.6.6-.93,1.39-.93,2.24s.33,1.64.93,2.24l5.19,5.19c1.2,1.2,3.28,1.2,4.48,0l4.07-4.07c.65-.65,1.55-.83,2.41-.48.85.35,1.36,1.12,1.36,2.04v5.75c0,1.75,1.42,3.17,3.17,3.17h7.33c1.75,0,3.17-1.42,3.17-3.17v-5.75c0-.92.51-1.69,1.36-2.04.86-.36,1.75-.17,2.41.48l4.07,4.07c1.2,1.2,3.28,1.2,4.48,0l5.19-5.19c.6-.6.93-1.39.93-2.24s-.33-1.64-.93-2.24l-4.07-4.07c-.65-.65-.83-1.55-.48-2.41s1.12-1.36,2.04-1.36h5.75c1.75,0,3.17-1.42,3.17-3.17v-7.33c0-1.75-1.42-3.17-3.17-3.17ZM435.72,835.07c0,.49-.4.89-.89.89h-5.75c-1.85,0-3.44,1.06-4.15,2.77-.71,1.71-.34,3.58.97,4.89l4.07,4.07c.35.35.35.91,0,1.26l-5.19,5.19c-.35.35-.91.35-1.26,0l-4.07-4.07c-1.31-1.31-3.18-1.68-4.89-.97-1.71.71-2.77,2.3-2.77,4.15v5.75c0,.49-.4.89-.89.89h-7.33c-.49,0-.89-.4-.89-.89v-5.75c0-1.85-1.06-3.44-2.77-4.15-.57-.24-1.16-.35-1.75-.35-1.15,0-2.27.46-3.14,1.33l-4.07,4.07c-.35.35-.91.35-1.26,0l-5.19-5.19c-.35-.35-.35-.91,0-1.26l4.07-4.07c1.31-1.31,1.68-3.18.97-4.89-.71-1.71-2.3-2.77-4.15-2.77h-5.75c-.49,0-.89-.4-.89-.89v-7.33c0-.49.4-.89.89-.89h5.75c1.85,0,3.44-1.06,4.15-2.77.71-1.71.34-3.58-.97-4.89l-4.07-4.07c-.35-.35-.35-.91,0-1.26l5.19-5.19c.35-.35.91-.35,1.26,0l4.07,4.07c1.31,1.31,3.18,1.68,4.89.97,1.71-.71,2.77-2.29,2.77-4.14v-5.75c0-.49.4-.89.89-.89h7.33c.49,0,.89.4.89.89v5.75c0,1.85,1.06,3.44,2.77,4.15,1.71.71,3.58.33,4.89-.97l4.07-4.07c.35-.35.91-.35,1.26,0l5.19,5.19c.35.35.35.91,0,1.26l-4.07,4.07c-1.31,1.31-1.68,3.18-.97,4.89.71,1.71,2.3,2.77,4.15,2.77h5.75c.49,0,.89.4.89.89v7.33Z"/>
    </g>
    <g id="blockOnOffSwitch-6" data-name="blockOnOffSwitch">
      <path class="cls-26" d="M21.28,831.72c0,33.14,26.86,60,60,60h130c33.14,0,60-26.86,60-60s-26.86-60-60-60H81.28c-33.14,0-60,26.86-60,60,0,0,0-33.14,0,0Z"/>
      <circle class="cls-10" cx="85.38" cy="832.37" r="46.65"/>
    </g>
  </g>
  <g id="distortionBlock2">
    <g id="blockBackground-7" data-name="blockBackground">
      <rect x="547.54" y="232.75" width="500" height="329" rx="25" ry="25"/>
    </g>
    <text id="blockText-7" data-name="blockText" class="cls-4" transform="translate(574.02 303.96) scale(1.17 1)"><tspan x="0" y="0">Dis</tspan><tspan class="cls-33" x="74.35" y="0">t</tspan><tspan class="cls-23" x="93" y="0">o</tspan><tspan class="cls-9" x="124.49" y="0">r</tspan><tspan x="144.63" y="0">tion</tspan></text>
    <g id="blockKnob-7" data-name="blockKnob">
      <g id="_x3C_fase_x3E_-7" data-name="_x3C_fase_x3E_">
        <circle id="_x3C_knobOutLine_x3E_-7" data-name="_x3C_knobOutLine_x3E_" class="cls-19" cx="951.22" cy="311.8" r="67.37"/>
        <g id="_x3C_knobLine_x3E_-7" data-name="_x3C_knobLine_x3E_">
          <line class="cls-14" x1="921.93" y1="361.12" x2="946.93" y2="318.12"/>
          <line x1="921.93" y1="361.12" x2="946.93" y2="318.12"/>
        </g>
      </g>
      <text class="cls-7" transform="translate(879.37 397.86) scale(1.17 1)"><tspan x="0" y="0">D</tspan><tspan class="cls-32" x="15.46" y="0">r</tspan><tspan class="cls-35" x="23.64" y="0">y</tspan></text>
      <text class="cls-7" transform="translate(976.37 400.86) scale(1.17 1)"><tspan class="cls-22" x="0" y="0">W</tspan><tspan class="cls-34" x="18.88" y="0">et</tspan></text>
    </g>
    <g id="blockSettingsButton-7" data-name="blockSettingsButton">
      <rect x="879.93" y="428.12" width="139" height="97" rx="25" ry="25"/>
      <path class="cls-16" d="M951.43,464.25c-6.92,0-12.56,5.63-12.56,12.56s5.63,12.56,12.56,12.56,12.56-5.63,12.56-12.56-5.63-12.56-12.56-12.56ZM951.43,486.57c-5.38,0-9.77-4.38-9.77-9.77s4.38-9.77,9.77-9.77,9.77,4.38,9.77,9.77-4.38,9.77-9.77,9.77Z"/>
      <path class="cls-16" d="M978.83,470.16h-5.75c-.92,0-1.69-.51-2.04-1.36s-.17-1.75.48-2.41l4.07-4.07c.6-.6.93-1.39.93-2.24s-.33-1.64-.93-2.24l-5.19-5.19c-1.2-1.2-3.28-1.2-4.48,0l-4.07,4.07c-.65.65-1.56.83-2.41.48-.85-.35-1.36-1.12-1.36-2.04v-5.75c0-1.75-1.42-3.17-3.17-3.17h-7.33c-1.75,0-3.17,1.42-3.17,3.17v5.75c0,.92-.51,1.69-1.36,2.04-.85.36-1.75.17-2.41-.48l-4.07-4.07c-1.2-1.2-3.28-1.2-4.48,0l-5.19,5.19c-.6.6-.93,1.39-.93,2.24s.33,1.64.93,2.24l4.07,4.07c.65.65.83,1.55.48,2.41s-1.12,1.36-2.04,1.36h-5.75c-1.75,0-3.17,1.42-3.17,3.17v7.33c0,1.75,1.42,3.17,3.17,3.17h5.75c.92,0,1.69.51,2.04,1.36s.17,1.75-.48,2.41l-4.07,4.07c-.6.6-.93,1.39-.93,2.24s.33,1.64.93,2.24l5.19,5.19c1.2,1.2,3.28,1.2,4.48,0l4.07-4.07c.65-.65,1.55-.83,2.41-.48.85.35,1.36,1.12,1.36,2.04v5.75c0,1.75,1.42,3.17,3.17,3.17h7.33c1.75,0,3.17-1.42,3.17-3.17v-5.75c0-.92.51-1.69,1.36-2.04.86-.36,1.75-.17,2.41.48l4.07,4.07c1.2,1.2,3.28,1.2,4.48,0l5.19-5.19c.6-.6.93-1.39.93-2.24s-.33-1.64-.93-2.24l-4.07-4.07c-.65-.65-.83-1.55-.48-2.41s1.12-1.36,2.04-1.36h5.75c1.75,0,3.17-1.42,3.17-3.17v-7.33c0-1.75-1.42-3.17-3.17-3.17ZM979.72,480.66c0,.49-.4.89-.89.89h-5.75c-1.85,0-3.44,1.06-4.15,2.77-.71,1.71-.34,3.58.97,4.89l4.07,4.07c.35.35.35.91,0,1.26l-5.19,5.19c-.35.35-.91.35-1.26,0l-4.07-4.07c-1.31-1.31-3.18-1.68-4.89-.97-1.71.71-2.77,2.3-2.77,4.15v5.75c0,.49-.4.89-.89.89h-7.33c-.49,0-.89-.4-.89-.89v-5.75c0-1.85-1.06-3.44-2.77-4.15-.57-.24-1.16-.35-1.75-.35-1.15,0-2.27.46-3.14,1.33l-4.07,4.07c-.35.35-.91.35-1.26,0l-5.19-5.19c-.35-.35-.35-.91,0-1.26l4.07-4.07c1.31-1.31,1.68-3.18.97-4.89-.71-1.71-2.3-2.77-4.15-2.77h-5.75c-.49,0-.89-.4-.89-.89v-7.33c0-.49.4-.89.89-.89h5.75c1.85,0,3.44-1.06,4.15-2.77.71-1.71.34-3.58-.97-4.89l-4.07-4.07c-.35-.35-.35-.91,0-1.26l5.19-5.19c.35-.35.91-.35,1.26,0l4.07,4.07c1.31,1.31,3.18,1.68,4.89.97,1.71-.71,2.77-2.29,2.77-4.14v-5.75c0-.49.4-.89.89-.89h7.33c.49,0,.89.4.89.89v5.75c0,1.85,1.06,3.44,2.77,4.15,1.71.71,3.58.33,4.89-.97l4.07-4.07c.35-.35.91-.35,1.26,0l5.19,5.19c.35.35.35.91,0,1.26l-4.07,4.07c-1.31,1.31-1.68,3.18-.97,4.89.71,1.71,2.3,2.77,4.15,2.77h5.75c.49,0,.89.4.89.89v7.33Z"/>
    </g>
    <g id="blockDragPoints-7" data-name="blockDragPoints">
      <circle class="cls-5" cx="591.93" cy="334.12" r="3"/>
      <circle class="cls-5" cx="616.93" cy="334.12" r="3"/>
      <circle class="cls-5" cx="641.93" cy="334.12" r="3"/>
      <circle class="cls-5" cx="591.93" cy="359.12" r="3"/>
      <circle class="cls-5" cx="616.93" cy="359.12" r="3"/>
      <circle class="cls-5" cx="641.93" cy="359.12" r="3"/>
      <circle class="cls-5" cx="591.93" cy="384.12" r="3"/>
      <circle class="cls-5" cx="616.93" cy="384.12" r="3"/>
      <circle class="cls-5" cx="641.93" cy="384.12" r="3"/>
    </g>
    <g id="blockOnOffSwitch-7" data-name="blockOnOffSwitch">
      <path class="cls-26" d="M569.28,476.72c0,33.14,26.86,60,60,60h130c33.14,0,60-26.86,60-60s-26.86-60-60-60h-130c-33.14,0-60,26.86-60,60,0,0,0-33.14,0,0Z"/>
      <circle class="cls-10" cx="633.38" cy="477.37" r="46.65"/>
    </g>
  </g>
  <g id="distortionBlock1">
    <g id="blockBackground-8" data-name="blockBackground">
      <rect x="3.58" y="229.78" width="500" height="329" rx="25" ry="25"/>
    </g>
    <text id="blockText-8" data-name="blockText" class="cls-4" transform="translate(30.06 301) scale(1.17 1)"><tspan x="0" y="0">Dis</tspan><tspan class="cls-33" x="74.35" y="0">t</tspan><tspan class="cls-23" x="93" y="0">o</tspan><tspan class="cls-9" x="124.49" y="0">r</tspan><tspan x="144.63" y="0">tion</tspan></text>
    <g id="blockKnob-8" data-name="blockKnob">
      <g id="_x3C_fase_x3E_-8" data-name="_x3C_fase_x3E_">
        <circle id="_x3C_knobOutLine_x3E_-8" data-name="_x3C_knobOutLine_x3E_" class="cls-19" cx="407.27" cy="308.84" r="67.37"/>
        <g id="_x3C_knobLine_x3E_-8" data-name="_x3C_knobLine_x3E_">
          <line class="cls-14" x1="377.98" y1="358.16" x2="402.98" y2="315.16"/>
          <line x1="377.98" y1="358.16" x2="402.98" y2="315.16"/>
        </g>
      </g>
      <text class="cls-7" transform="translate(335.41 394.89) scale(1.17 1)"><tspan x="0" y="0">D</tspan><tspan class="cls-32" x="15.46" y="0">r</tspan><tspan class="cls-35" x="23.64" y="0">y</tspan></text>
      <text class="cls-7" transform="translate(432.41 397.89) scale(1.17 1)"><tspan class="cls-22" x="0" y="0">W</tspan><tspan class="cls-34" x="18.88" y="0">et</tspan></text>
    </g>
    <g id="blockSettingsButton-8" data-name="blockSettingsButton">
      <rect x="335.98" y="425.16" width="139" height="97" rx="25" ry="25"/>
      <path class="cls-16" d="M407.24,460.89c-6.92,0-12.56,5.63-12.56,12.56s5.63,12.56,12.56,12.56,12.56-5.63,12.56-12.56-5.63-12.56-12.56-12.56ZM407.24,483.21c-5.38,0-9.77-4.38-9.77-9.77s4.38-9.77,9.77-9.77,9.77,4.38,9.77,9.77-4.38,9.77-9.77,9.77Z"/>
      <path class="cls-16" d="M434.64,466.8h-5.75c-.92,0-1.69-.51-2.04-1.36s-.17-1.75.48-2.41l4.07-4.07c.6-.6.93-1.39.93-2.24s-.33-1.64-.93-2.24l-5.19-5.19c-1.2-1.2-3.28-1.2-4.48,0l-4.07,4.07c-.65.65-1.56.83-2.41.48-.85-.35-1.36-1.12-1.36-2.04v-5.75c0-1.75-1.42-3.17-3.17-3.17h-7.33c-1.75,0-3.17,1.42-3.17,3.17v5.75c0,.92-.51,1.69-1.36,2.04-.85.36-1.75.17-2.41-.48l-4.07-4.07c-1.2-1.2-3.28-1.2-4.48,0l-5.19,5.19c-.6.6-.93,1.39-.93,2.24s.33,1.64.93,2.24l4.07,4.07c.65.65.83,1.55.48,2.41s-1.12,1.36-2.04,1.36h-5.75c-1.75,0-3.17,1.42-3.17,3.17v7.33c0,1.75,1.42,3.17,3.17,3.17h5.75c.92,0,1.69.51,2.04,1.36s.17,1.75-.48,2.41l-4.07,4.07c-.6.6-.93,1.39-.93,2.24s.33,1.64.93,2.24l5.19,5.19c1.2,1.2,3.28,1.2,4.48,0l4.07-4.07c.65-.65,1.55-.83,2.41-.48.85.35,1.36,1.12,1.36,2.04v5.75c0,1.75,1.42,3.17,3.17,3.17h7.33c1.75,0,3.17-1.42,3.17-3.17v-5.75c0-.92.51-1.69,1.36-2.04.86-.36,1.75-.17,2.41.48l4.07,4.07c1.2,1.2,3.28,1.2,4.48,0l5.19-5.19c.6-.6.93-1.39.93-2.24s-.33-1.64-.93-2.24l-4.07-4.07c-.65-.65-.83-1.55-.48-2.41s1.12-1.36,2.04-1.36h5.75c1.75,0,3.17-1.42,3.17-3.17v-7.33c0-1.75-1.42-3.17-3.17-3.17ZM435.53,477.3c0,.49-.4.89-.89.89h-5.75c-1.85,0-3.44,1.06-4.15,2.77-.71,1.71-.34,3.58.97,4.89l4.07,4.07c.35.35.35.91,0,1.26l-5.19,5.19c-.35.35-.91.35-1.26,0l-4.07-4.07c-1.31-1.31-3.18-1.68-4.89-.97-1.71.71-2.77,2.3-2.77,4.15v5.75c0,.49-.4.89-.89.89h-7.33c-.49,0-.89-.4-.89-.89v-5.75c0-1.85-1.06-3.44-2.77-4.15-.57-.24-1.16-.35-1.75-.35-1.15,0-2.27.46-3.14,1.33l-4.07,4.07c-.35.35-.91.35-1.26,0l-5.19-5.19c-.35-.35-.35-.91,0-1.26l4.07-4.07c1.31-1.31,1.68-3.18.97-4.89-.71-1.71-2.3-2.77-4.15-2.77h-5.75c-.49,0-.89-.4-.89-.89v-7.33c0-.49.4-.89.89-.89h5.75c1.85,0,3.44-1.06,4.15-2.77.71-1.71.34-3.58-.97-4.89l-4.07-4.07c-.35-.35-.35-.91,0-1.26l5.19-5.19c.35-.35.91-.35,1.26,0l4.07,4.07c1.31,1.31,3.18,1.68,4.89.97,1.71-.71,2.77-2.29,2.77-4.14v-5.75c0-.49.4-.89.89-.89h7.33c.49,0,.89.4.89.89v5.75c0,1.85,1.06,3.44,2.77,4.15,1.71.71,3.58.33,4.89-.97l4.07-4.07c.35-.35.91-.35,1.26,0l5.19,5.19c.35.35.35.91,0,1.26l-4.07,4.07c-1.31,1.31-1.68,3.18-.97,4.89.71,1.71,2.3,2.77,4.15,2.77h5.75c.49,0,.89.4.89.89v7.33Z"/>
    </g>
    <g id="blockDragPoints-8" data-name="blockDragPoints">
      <circle class="cls-5" cx="47.98" cy="331.16" r="3"/>
      <circle class="cls-5" cx="72.98" cy="331.16" r="3"/>
      <circle class="cls-5" cx="97.98" cy="331.16" r="3"/>
      <circle class="cls-5" cx="47.98" cy="356.16" r="3"/>
      <circle class="cls-5" cx="72.98" cy="356.16" r="3"/>
      <circle class="cls-5" cx="97.98" cy="356.16" r="3"/>
      <circle class="cls-5" cx="47.98" cy="381.16" r="3"/>
      <circle class="cls-5" cx="72.98" cy="381.16" r="3"/>
      <circle class="cls-5" cx="97.98" cy="381.16" r="3"/>
    </g>
    <g id="blockOnOffSwitch-8" data-name="blockOnOffSwitch">
      <path class="cls-26" d="M27.28,473.72c0,33.14,26.86,60,60,60h130c33.14,0,60-26.86,60-60s-26.86-60-60-60H87.28c-33.14,0-60,26.86-60,60,0,0,0-33.14,0,0Z"/>
      <circle class="cls-10" cx="91.38" cy="474.37" r="46.65"/>
    </g>
  </g>
  <g id="GainBlock1">
    <g id="blockBackground-9" data-name="blockBackground">
      <rect x="5" y="0" width="500" height="189" rx="25" ry="25"/>
    </g>
    <g id="blockKnob-9" data-name="blockKnob">
      <circle id="_x3C_knobOutLine_x3E_-9" data-name="_x3C_knobOutLine_x3E_" class="cls-19" cx="410.87" cy="94.86" r="67.37"/>
      <g id="_x3C_knobLine_x3E_-9" data-name="_x3C_knobLine_x3E_">
        <line class="cls-14" x1="381.58" y1="144.18" x2="406.58" y2="101.18"/>
        <line x1="381.58" y1="144.18" x2="406.58" y2="101.18"/>
      </g>
    </g>
    <g id="gainLevelIndicator">
      <g>
        <path d="M21,125.51c0,8.56,6.94,15.5,15.5,15.5h273c8.56,0,15.5-6.94,15.5-15.5s-6.94-15.5-15.5-15.5H36.5c-8.56,0-15.5,6.94-15.5,15.5,0,0,0-8.56,0,0Z"/>
        <path class="cls-15" d="M21,125.51c0,8.56,6.94,15.5,15.5,15.5h273c8.56,0,15.5-6.94,15.5-15.5s-6.94-15.5-15.5-15.5H36.5c-8.56,0-15.5,6.94-15.5,15.5,0,0,0-8.56,0,0Z"/>
      </g>
    </g>
    <text id="blockText-9" data-name="blockText" class="cls-3" transform="translate(27.72 81.24) scale(1.17 1)"><tspan class="cls-30" x="0" y="0">G</tspan><tspan x="32.29" y="0">ain </tspan><tspan class="cls-20" x="105.5" y="0">F</tspan><tspan class="cls-21" x="127.32" y="0">ader 1</tspan></text>
  </g>
  <g id="GainBlock2">
    <g id="blockBackground-10" data-name="blockBackground">
      <rect x="547.95" width="500" height="189" rx="25" ry="25"/>
    </g>
    <g id="blockKnob-10" data-name="blockKnob">
      <circle id="_x3C_knobOutLine_x3E_-10" data-name="_x3C_knobOutLine_x3E_" class="cls-19" cx="953.82" cy="94.85" r="67.37"/>
      <g id="_x3C_knobLine_x3E_-10" data-name="_x3C_knobLine_x3E_">
        <line class="cls-14" x1="924.53" y1="144.17" x2="949.53" y2="101.17"/>
        <line x1="924.53" y1="144.17" x2="949.53" y2="101.17"/>
      </g>
    </g>
    <g id="gainLevelIndicator-2" data-name="gainLevelIndicator">
      <g>
        <path d="M563.95,125.5c0,8.56,6.94,15.5,15.5,15.5h273c8.56,0,15.5-6.94,15.5-15.5s-6.94-15.5-15.5-15.5h-273c-8.56,0-15.5,6.94-15.5,15.5,0,0,0-8.56,0,0Z"/>
        <path class="cls-15" d="M563.95,125.5c0,8.56,6.94,15.5,15.5,15.5h273c8.56,0,15.5-6.94,15.5-15.5s-6.94-15.5-15.5-15.5h-273c-8.56,0-15.5,6.94-15.5,15.5,0,0,0-8.56,0,0Z"/>
      </g>
    </g>
    <text id="blockText-10" data-name="blockText" class="cls-3" transform="translate(570.67 81.23) scale(1.17 1)"><tspan class="cls-30" x="0" y="0">G</tspan><tspan x="32.29" y="0">ain </tspan><tspan class="cls-20" x="105.5" y="0">F</tspan><tspan class="cls-21" x="127.32" y="0">ader 2</tspan></text>
  </g>
</svg>